# Blender v2.73 (sub 0) OBJ File: ''
# www.blender.org
o ship_mesh_ship
v 0.073441 0.696657 -4.482408
v 1.192027 0.816617 -4.958025
v 1.732681 0.011508 -4.969514
v 2.225806 -0.119265 -0.505626
v 0.599569 -0.987478 -4.961156
v 0.553648 0.711603 -0.897254
v 2.180326 0.391782 2.519655
v 2.263155 0.170125 2.328213
v 2.400241 -0.210932 2.183254
v 1.136375 -0.941360 2.447106
v 1.850402 -0.955406 2.324333
v -0.073441 0.696657 -4.482408
v -1.192027 0.816617 -4.958025
v -1.732681 0.011508 -4.969514
v -2.225806 -0.119265 -0.505626
v -0.599569 -0.987478 -4.961156
v -0.553648 0.711603 -0.897254
v -2.180326 0.391782 2.519655
v -2.263155 0.170125 2.328213
v -2.400241 -0.210932 2.183254
v -1.136375 -0.941360 2.447106
v -1.850402 -0.955406 2.324333
v -0.871850 0.430362 2.587778
v -2.217134 -0.774709 2.156785
v -0.552375 -0.713553 2.409270
v 0.871850 0.430362 2.587778
v 2.217134 -0.774709 2.156785
v 0.552375 -0.713553 2.409270
v 0.173967 0.378861 5.439786
v 0.918330 0.489391 2.394984
v -0.173967 0.378861 5.439786
v 0.499155 0.859959 2.726105
v 0.939557 -0.454116 2.287407
v 0.608311 -0.562717 5.363510
v 0.575422 -0.699135 2.247314
v -0.918330 0.489391 2.394984
v -0.499155 0.859959 2.726105
v -0.939557 -0.454116 2.287407
v -0.608311 -0.562717 5.363510
v -0.575422 -0.699135 2.247314
v -0.283254 -0.315800 6.378655
v -0.854969 0.151966 4.525299
v 0.283254 -0.315800 6.378655
v 0.854969 0.151966 4.525299
v -0.038231 0.929085 1.045148
v -0.501763 0.676773 3.545395
v 0.038231 0.929085 1.045148
v -0.165858 1.128984 3.659039
v 0.501763 0.676773 3.545395
v 0.165858 1.128984 3.659039
v 0.105430 0.570786 4.650846
v -0.105430 0.570786 4.650846
v 1.690427 -0.263410 -4.670513
v 2.133315 -0.312931 1.970347
v 1.932451 -0.027437 -1.084632
v 1.573999 -0.461207 -4.540011
v 1.647577 -0.430272 -1.575236
v 6.417324 -0.259602 -2.221728
v 5.255864 -0.207978 -4.796844
v -1.690427 -0.263410 -4.670513
v -2.133315 -0.312931 1.970347
v -1.932451 -0.027437 -1.084632
v -1.573999 -0.461207 -4.540011
v -1.647577 -0.430272 -1.575236
v -6.417324 -0.259602 -2.221728
v -5.255864 -0.207978 -4.796844
v 1.398215 -0.798305 -5.064016
v -1.398215 -0.798305 -5.064016
v -0.733427 -0.775035 -5.646829
v -1.470364 0.132095 -5.645014
v -0.678214 0.634893 -5.669981
v -0.631105 0.518056 -4.797715
v -0.136818 -0.229136 -5.648236
v -1.498392 -0.059356 -4.795390
v -1.360902 -0.500681 -5.643759
v -0.218314 -0.115759 -4.797817
v -0.685073 -0.710300 -4.797196
v -0.001343 0.313864 -4.930129
v 0.733427 -0.775035 -5.646829
v 1.470364 0.132095 -5.645014
v 0.678214 0.634893 -5.669981
v 0.631105 0.518056 -4.797715
v -0.151981 -0.037692 -4.938869
v 0.136818 -0.229136 -5.648236
v 1.498392 -0.059356 -4.795390
v 1.360902 -0.500681 -5.643759
v 0.218314 -0.115759 -4.797817
v 0.685073 -0.710300 -4.797196
v 0.001343 0.313864 -4.930129
v 0.151981 -0.037692 -4.938869
v -1.137519 0.744994 -3.041864
v -2.393731 3.479838 -4.600750
v -0.933428 0.760375 -4.904042
v -2.059861 2.761166 -5.574096
v 1.137519 0.744994 -3.041864
v 2.393731 3.479838 -4.600750
v 0.933428 0.760375 -4.904042
v 2.059861 2.761166 -5.574096
v 1.139035 0.673196 -4.922188
v -1.139035 0.673196 -4.922188
v 0.000000 -0.868068 5.015717
v 0.000000 -0.167983 6.505555
v 0.000000 -0.164238 6.499753
v 0.000000 0.174504 -4.931148
v 0.000000 0.314666 -4.931701
v 0.000000 0.309290 -4.939272
v 0.000000 0.831418 4.134788
v 0.000000 -0.607866 -4.844103
v 0.000000 0.546943 4.502715
v 0.000000 -0.870119 4.962737
v 0.000000 -0.324942 6.410302
v 0.000000 0.574744 4.601861
v 0.000000 -0.586987 -4.973948
v 0.000000 -0.854066 5.056726
v 0.000000 -0.040485 -5.357750
v 0.000000 1.006291 3.672355
v 0.000000 0.676644 -3.923778
v 0.000000 0.352864 5.386753
v 0.000000 1.132260 3.232865
v 0.000000 0.732320 -3.377645
v 0.000000 -0.579825 -4.936951
v 0.000000 0.893620 2.556220
v 0.000000 -0.611393 -4.937158
v 0.000000 -0.704334 2.246977
v 0.000000 0.920171 1.173993
v 0.000000 0.963773 1.330118
v 0.000000 0.686497 -4.614503
v -0.000000 -0.608382 -4.944068
vt 0.804458 0.024050
vt 0.763582 0.025095
vt 0.768281 0.220377
vt 0.689504 0.492727
vt 0.684249 0.477343
vt 0.689203 0.503058
vt 0.856209 0.023015
vt 0.817411 0.374327
vt 0.860324 0.236510
vt 0.116627 0.869488
vt 0.172445 0.913571
vt 0.113673 0.913568
vt 0.066359 0.869486
vt 0.030924 0.913568
vt 0.028322 0.869488
vt 0.965133 0.847584
vt 0.962800 0.727135
vt 0.942525 0.828542
vt 0.156739 0.965745
vt 0.170941 0.916881
vt 0.152178 0.916881
vt 0.087301 0.797063
vt 0.020333 0.802456
vt 0.058498 0.819952
vt 0.945388 0.023413
vt 0.905071 0.019106
vt 0.911749 0.368446
vt 0.071261 0.913567
vt 0.771931 0.386106
vt 0.971376 0.280881
vt 0.946721 0.365213
vt 0.887607 0.361370
vt 0.091117 0.729509
vt 0.987125 0.027400
vt 0.986811 0.024076
vt 0.975399 0.371261
vt 0.685714 0.543781
vt 0.686935 0.518273
vt 0.689504 0.524387
vt 0.026661 0.709804
vt 0.842386 0.370800
vt 0.865471 0.363692
vt 0.175617 0.965743
vt 0.700729 0.726929
vt 0.718216 0.859226
vt 0.715916 0.728253
vt 0.903365 0.739312
vt 0.923908 0.731427
vt 0.905581 0.568060
vt 0.744637 0.728346
vt 0.777375 0.461179
vt 0.746394 0.843037
vt 0.163100 0.869490
vt 0.896800 0.448683
vt 0.881450 0.865116
vt 0.888881 0.867775
vt 0.880573 0.917096
vt 0.911867 0.835654
vt 0.890016 0.911675
vt 0.880541 0.731683
vt 0.880807 0.823643
vt 0.746507 0.847184
vt 0.746688 0.908269
vt 0.734694 0.907980
vt 0.741496 0.919262
vt 0.959978 0.911343
vt 0.184097 0.916880
vt 0.641560 0.438112
vt 0.645616 0.434561
vt 0.638784 0.487078
vt 0.630686 0.472466
vt 0.657392 0.454576
vt 0.654983 0.486160
vt 0.644124 0.524139
vt 0.445820 0.362611
vt 0.263755 0.370621
vt 0.280357 0.556227
vt 0.295596 0.713952
vt 0.508001 0.491272
vt 0.633146 0.509519
vt 0.634530 0.532610
vt 0.631891 0.530836
vt 0.263285 0.368808
vt 0.267708 0.183024
vt 0.507933 0.224509
vt 0.293112 0.032624
vt 0.446526 0.353298
vt 0.263725 0.338936
vt 0.136318 0.965743
vt 0.124464 0.916879
vt 0.118876 0.965740
vt 0.107027 0.965739
vt 0.094487 0.916877
vt 0.088262 0.965243
vt 0.071804 0.916879
vt 0.088747 0.963191
vt 0.088223 0.965739
vt 0.071640 0.965741
vt 0.065670 0.965742
vt 0.216623 0.869488
vt 0.194563 0.869490
vt 0.214099 0.913569
vt 0.307564 0.879175
vt 0.331544 0.852887
vt 0.329290 0.907518
vt 0.363380 0.881363
vt 0.520599 0.588785
vt 0.390401 0.692527
vt 0.487565 0.692527
vt 0.471095 0.850698
vt 0.486475 0.710139
vt 0.389890 0.710194
vt 0.168475 0.965744
vt 0.157352 0.965745
vt 0.157210 0.936647
vt 0.469605 0.552296
vt 0.519967 0.816579
vt 0.513344 0.710339
vt 0.541302 0.098514
vt 0.566853 0.103168
vt 0.553392 0.102157
vt 0.891378 0.493003
vt 0.892030 0.471636
vt 0.892163 0.448569
vt 0.632148 0.488846
vt 0.148390 0.965744
vt 0.148502 0.965117
vt 0.876374 0.008807
vt 0.846705 0.058221
vt 0.845423 0.052086
vt 0.876269 0.008810
vt 0.148357 0.965636
vt 0.104212 0.965739
vt 0.880558 0.917367
vt 0.746460 0.845265
vn -0.102600 0.994700 0.009600
vn 0.020500 -0.649100 0.760400
vn 0.842400 0.533300 -0.077400
vn -0.548500 -0.824400 -0.140000
vn 0.675000 0.737600 -0.017800
vn 0.970400 -0.221500 0.096700
vn 0.910600 -0.158300 -0.381900
vn 0.430700 -0.181400 0.884100
vn 0.226100 -0.973500 -0.034500
vn 0.847200 -0.531100 -0.010400
vn 0.837600 -0.545500 -0.027800
vn 0.033400 0.996400 0.077400
vn 0.923000 -0.368000 -0.112700
vn -0.406700 -0.912900 0.035200
vn -0.018400 -0.999800 0.007600
vn 0.424800 -0.904100 -0.045200
vn 0.901200 -0.421500 -0.100800
vn 0.827200 0.556600 -0.077700
vn 0.106300 0.993400 0.042400
vn 0.147000 -0.183500 0.972000
vn -0.226100 -0.973500 -0.034500
vn -0.842400 0.533300 -0.077400
vn -0.923000 -0.368000 -0.112700
vn 0.530200 -0.847300 0.032100
vn 0.102600 0.994700 0.009600
vn -0.827200 0.556600 -0.077700
vn -0.901200 -0.421500 -0.100800
vn -0.424800 -0.904100 -0.045200
vn 0.018400 -0.999800 0.007600
vn 0.406700 -0.912900 0.035200
vn -0.106300 0.993400 0.042400
vn -0.147000 -0.183500 0.972000
vn -0.153600 0.532100 0.832600
vn -0.148100 0.493900 0.856800
vn -0.020500 -0.649100 0.760400
vn -0.140300 -0.190800 0.971500
vn -0.430700 -0.181400 0.884100
vn -0.033400 0.996400 0.077400
vn -0.920000 0.388500 -0.051800
vn -0.933800 0.354400 -0.048500
vn -0.949600 -0.305000 -0.072000
vn 0.352700 -0.926300 -0.132700
vn 0.907500 -0.347200 -0.236600
vn 0.140300 -0.190800 0.971500
vn 0.555700 -0.830800 0.030500
vn 0.652700 0.757300 -0.021200
vn -0.009000 -0.999900 -0.013600
vn -0.009100 -0.998100 -0.060900
vn 0.920000 0.388500 -0.051800
vn -0.524200 -0.834300 -0.170700
vn 0.239500 0.970200 -0.036100
vn 0.255200 0.876900 0.407400
vn 0.700300 0.610400 0.370100
vn -0.352700 -0.926300 -0.132700
vn 0.999300 0.018800 0.032700
vn 0.712500 0.689400 0.130400
vn -0.652700 0.757300 -0.021200
vn -0.239500 0.970200 -0.036100
vn 0.153600 0.532100 0.832600
vn -0.712500 0.689400 0.130400
vn -0.006700 0.984500 0.175300
vn 0.550300 0.808300 0.209200
vn -0.555700 -0.830800 0.030500
vn -0.070600 -0.929000 0.363200
vn -0.999300 0.018800 0.032700
vn -0.111600 -0.515600 0.849600
vn -0.550300 0.808300 0.209200
vn 0.933800 0.354400 -0.048500
vn -0.700300 0.610400 0.370100
vn -0.953700 0.022600 0.299900
vn -0.970400 -0.221500 0.096700
vn 0.360700 -0.820100 -0.444200
vn -0.239200 0.967200 -0.085600
vn -0.789500 0.607800 -0.085000
vn 0.795000 0.506700 0.333600
vn -0.017800 0.997800 -0.064500
vn 0.073700 0.993400 0.088000
vn -0.795000 0.506700 0.333600
vn 0.187500 0.860800 0.473100
vn -0.021300 -0.541800 -0.840200
vn 0.039500 -0.998800 0.027600
vn 0.069200 -0.997600 0.008700
vn 0.469200 0.713300 -0.520700
vn 0.031100 -0.998900 -0.034100
vn 0.809000 0.546400 -0.216600
vn -0.161500 0.977900 -0.133100
vn 0.017800 0.997800 -0.064500
vn -0.050900 0.998700 -0.003000
vn -0.073700 0.993400 0.088000
vn -0.069200 -0.997600 0.008700
vn -0.031100 -0.998900 -0.034100
vn -0.039500 -0.998800 0.027600
vn 0.021300 -0.541800 -0.840200
vn -0.809000 0.546400 -0.216600
vn -0.469200 0.713300 -0.520700
vn 0.161500 0.977900 -0.133100
vn 0.706700 0.589900 -0.390600
vn 0.746400 0.455500 -0.485200
vn 0.596200 -0.652800 -0.467400
vn 0.508800 -0.789200 -0.343900
vn -0.191400 -0.947500 -0.256200
vn -0.360700 -0.820100 -0.444200
vn -0.907500 -0.347200 -0.236600
vn -0.910600 -0.158300 -0.381900
vn 0.524200 -0.834300 -0.170700
vn 0.548500 -0.824400 -0.140000
vn -0.847200 -0.531100 -0.010400
vn -0.837600 -0.545500 -0.027800
vn -0.777000 0.609900 -0.155800
vn -0.675000 0.737600 -0.017800
vn 0.398500 0.912500 -0.092200
vn 0.597300 0.747100 -0.291800
vn 0.982900 0.170200 0.070800
vn -0.000800 -0.000400 -1.000000
vn -0.002500 -0.000300 -1.000000
vn -0.597300 0.747100 -0.291800
vn -0.982900 0.170200 0.070800
vn -0.398500 0.912500 -0.092200
vn 0.000800 -0.000400 -1.000000
vn 0.777000 0.609900 -0.155800
vn 0.916700 -0.399300 0.016000
vn 0.002500 -0.000300 -1.000000
vn -0.881200 0.462000 0.100400
vn -0.909200 -0.256100 -0.328200
vn 0.908200 -0.418600 -0.002500
vn -0.178200 -0.220800 -0.958900
vn -0.877500 0.476900 -0.051100
vn -0.916700 -0.399300 0.016000
vn -0.908200 -0.418600 -0.002500
vn 0.178200 -0.220800 -0.958900
vn 0.877500 0.476900 -0.051100
vn 0.881200 0.462000 0.100400
vn -0.530200 -0.847300 0.032100
vn 0.239200 0.967200 -0.085600
vn 0.749200 0.637900 -0.178200
vn -0.706700 0.589900 -0.390600
vn -0.076400 0.996700 -0.027100
vn 0.789500 0.607800 -0.085000
vn 0.161800 0.986700 0.014100
vn 0.721700 0.688700 -0.070200
vn 0.567400 0.791600 0.226900
vn -0.746400 0.455500 -0.485200
vn 0.953700 0.022600 0.299900
vn 0.206800 0.955600 0.209800
vn 0.148100 0.493900 0.856800
vn 0.191400 -0.947500 -0.256200
vn 0.552900 0.779400 0.294700
vn 0.050900 0.998700 -0.003000
vn -0.868700 0.380100 -0.317700
vn -0.787700 0.399800 -0.468700
vn -0.758700 0.531100 -0.377100
vn 0.981100 0.010900 -0.193300
vn 0.949600 -0.305000 -0.072000
vn -0.563100 0.694300 0.448200
vn -0.432300 -0.901000 0.034900
vn -0.278800 -0.908800 0.310300
vn 0.006700 0.984500 0.175300
vn 0.009100 -0.998100 -0.060900
vn 0.009000 -0.999900 -0.013600
vn 0.111600 -0.515600 0.849600
vn -0.187500 0.860800 0.473100
vn -0.508800 -0.789200 -0.343900
vn -0.721700 0.688700 -0.070200
vn -0.161800 0.986700 0.014100
vn 0.909200 -0.256100 -0.328200
vn -0.206800 0.955600 0.209800
vn -0.552900 0.779400 0.294700
vn 0.758700 0.531100 -0.377100
vn -0.981100 0.010900 -0.193300
vn 0.868700 0.380100 -0.317700
vn 0.076400 0.996700 -0.027100
vn -0.567400 0.791600 0.226900
vn 0.787700 0.399800 -0.468700
vn 0.278800 -0.908800 0.310300
vn 0.563100 0.694300 0.448200
vn 0.432300 -0.901000 0.034900
vn -0.749200 0.637900 -0.178200
vn 0.070600 -0.929000 0.363200
vn -0.596200 -0.652800 -0.467400
vn -0.255200 0.876900 0.407400
s off
f 2/1/1 1/2/1 6/3/1
f 7/4/2 26/5/2 8/6/2
f 3/7/3 7/8/3 4/9/3
f 81/10/4 85/11/4 82/12/4
f 84/13/5 88/14/5 79/15/5
f 34/16/6 33/17/6 44/18/6
f 3/19/7 86/20/7 80/21/7
f 8/22/8 27/23/8 9/24/8
f 5/25/9 67/26/9 11/27/9
f 81/10/10 87/28/10 84/13/10
f 81/10/11 82/12/11 87/28/11
f 7/8/12 6/3/12 26/29/12
f 67/26/13 3/7/13 4/9/13
f 35/30/14 5/25/14 10/31/14
f 5/25/15 11/27/15 10/31/15
f 11/27/16 67/26/16 27/32/16
f 67/26/17 4/9/17 27/32/17
f 3/7/18 2/1/18 7/8/18
f 2/1/19 6/3/19 7/8/19
f 26/33/20 27/23/20 8/22/20
f 16/25/21 22/27/21 68/26/21
f 14/7/22 15/9/22 18/8/22
f 68/26/23 15/9/23 14/7/23
f 108/34/24 40/30/24 16/25/24 123/35/24
f 13/1/25 17/3/25 12/2/25
f 14/7/26 18/8/26 13/1/26
f 68/26/27 24/32/27 15/9/27
f 22/27/28 24/32/28 68/26/28
f 16/25/29 21/31/29 22/27/29
f 40/30/30 21/31/30 16/25/30
f 13/1/31 18/8/31 17/3/31
f 23/33/32 19/22/32 24/23/32
f 21/31/33 25/36/33 22/27/33
f 25/37/34 24/38/34 22/39/34
f 18/4/35 19/6/35 23/5/35
f 23/33/36 24/23/36 25/40/36
f 19/22/37 20/24/37 24/23/37
f 18/8/38 23/29/38 17/3/38
f 15/9/39 19/41/39 18/8/39
f 15/9/40 20/42/40 19/41/40
f 15/9/41 24/32/41 20/42/41
f 40/30/42 25/36/42 21/31/42
f 67/43/43 86/20/43 3/19/43
f 26/33/44 28/40/44 27/23/44
f 33/44/45 34/45/45 35/46/45
f 32/47/46 30/48/46 6/49/46
f 124/50/47 40/46/47 108/51/47
f 110/52/48 40/46/48 124/50/48
f 4/9/49 7/8/49 8/41/49
f 80/53/50 85/11/50 81/10/50
f 1/54/51 32/47/51 6/49/51
f 118/55/52 31/56/52 103/57/52
f 44/58/53 29/56/53 43/59/53
f 35/30/54 10/31/54 28/36/54
f 33/17/55 30/48/55 44/18/55
f 32/47/56 44/58/56 30/48/56
f 37/47/57 17/49/57 36/48/57
f 12/54/58 17/49/58 37/47/58
f 10/31/59 11/27/59 28/36/59
f 37/47/60 36/48/60 42/58/60
f 122/60/61 37/47/61 31/56/61 109/61/61
f 32/47/62 29/56/62 44/58/62
f 38/44/63 40/46/63 39/45/63
f 114/62/64 111/63/64 41/64/64
f 38/17/65 42/18/65 36/48/65
f 102/65/66 41/64/66 111/63/66
f 37/47/67 42/58/67 31/56/67
f 4/9/68 8/41/68 9/42/68
f 42/58/69 41/59/69 31/56/69
f 39/16/70 41/66/70 42/18/70
f 39/16/71 42/18/71 38/17/71
f 67/43/72 79/67/72 86/20/72
f 126/68/73 45/69/73 48/70/73 119/71/73
f 48/70/74 45/69/74 46/72/74
f 49/73/75 50/70/75 51/74/75
f 59/75/76 53/76/76 55/77/76
f 55/77/77 54/78/77 58/79/77
f 46/73/78 52/74/78 48/70/78
f 107/80/79 48/70/79 52/81/79 112/82/79
f 59/75/80 56/83/80 53/76/80
f 57/84/81 58/85/81 54/86/81
f 59/87/82 57/84/82 56/88/82
f 2/89/83 80/21/83 81/90/83
f 57/84/84 59/87/84 58/85/84
f 3/19/85 80/21/85 2/89/85
f 2/89/86 81/90/86 1/91/86
f 66/75/87 62/77/87 60/76/87
f 62/77/88 66/75/88 65/79/88
f 62/77/89 65/79/89 61/78/89
f 66/87/90 63/88/90 64/84/90
f 64/84/91 65/85/91 66/87/91
f 64/84/92 61/86/92 65/85/92
f 66/75/93 60/76/93 63/83/93
f 14/19/94 13/89/94 70/21/94
f 13/89/95 71/90/95 70/21/95
f 13/89/96 12/91/96 71/90/96
f 12/91/97 78/92/97 71/90/97
f 78/92/98 73/93/98 71/90/98
f 128/94/99 69/95/99 73/93/99 113/96/99
f 123/97/100 16/98/100 69/95/100 128/94/100
f 16/98/101 68/99/101 69/95/101
f 68/43/102 75/20/102 69/67/102
f 68/43/103 14/19/103 75/20/103
f 14/19/104 70/21/104 75/20/104
f 70/53/105 71/10/105 74/11/105
f 71/10/106 72/12/106 74/11/106
f 71/10/107 73/13/107 76/28/107
f 71/10/108 76/28/108 72/12/108
f 73/13/109 77/14/109 76/28/109
f 73/13/110 69/15/110 77/14/110
f 69/100/111 75/101/111 77/102/111
f 75/101/112 74/11/112 77/102/112
f 75/101/113 70/53/113 74/11/113
f 76/103/114 77/104/114 72/105/114
f 77/104/115 74/106/115 72/105/115
f 86/101/116 88/102/116 85/11/116
f 86/101/117 85/11/117 80/53/117
f 79/100/118 88/102/118 86/101/118
f 87/103/119 82/105/119 88/104/119
f 84/13/120 87/28/120 88/14/120
f 98/107/121 95/108/121 99/109/121
f 88/104/122 82/105/122 85/106/122
f 96/110/123 97/111/123 95/112/123
f 121/113/124 83/114/124 115/115/124
f 98/107/125 96/116/125 95/108/125
f 98/117/126 99/118/126 97/111/126
f 98/117/127 97/111/127 96/110/127
f 94/107/128 100/109/128 91/108/128
f 94/107/129 91/108/129 92/116/129
f 94/117/130 93/111/130 100/118/130
f 94/117/131 92/110/131 93/111/131
f 92/110/132 91/112/132 93/111/132
f 108/34/133 123/35/133 5/25/133 35/30/133
f 126/68/134 119/71/134 50/70/134 47/69/134
f 45/119/135 126/120/135 125/121/135
f 1/91/136 81/90/136 89/92/136
f 12/54/137 37/47/137 122/60/137 120/122/137
f 50/70/138 49/72/138 47/69/138
f 12/54/139 117/123/139 127/124/139
f 12/54/140 120/122/140 117/123/140
f 48/70/141 116/125/141 119/71/141
f 89/92/142 81/90/142 84/93/142
f 34/16/143 44/18/143 43/66/143
f 31/56/144 118/55/144 109/61/144
f 28/37/145 11/39/145 27/38/145
f 5/98/146 79/95/146 67/99/146
f 48/70/147 107/80/147 116/125/147
f 55/77/148 58/79/148 59/75/148
f 83/114/149 78/126/149 106/127/149 115/115/149
f 78/128/150 12/129/150 127/130/150 105/131/150
f 78/126/151 105/132/151 106/127/151
f 78/92/152 104/133/152 113/96/152 73/93/152
f 4/9/153 9/42/153 27/32/153
f 31/56/154 41/59/154 102/134/154 103/57/154
f 40/46/155 110/52/155 101/135/155 39/45/155
f 39/45/156 101/135/156 114/62/156 41/64/156
f 122/60/157 109/61/157 29/56/157 32/47/157
f 110/52/158 124/50/158 35/46/158
f 124/50/159 108/51/159 35/46/159
f 102/65/160 111/63/160 43/64/160
f 107/80/161 112/82/161 51/81/161 50/70/161
f 123/97/162 128/94/162 79/95/162 5/98/162
f 1/54/163 117/123/163 120/122/163
f 1/54/164 127/124/164 117/123/164
f 121/113/165 115/115/165 90/114/165
f 29/56/166 109/61/166 118/55/166
f 50/70/167 116/125/167 107/80/167
f 89/126/168 106/127/168 105/132/168
f 89/92/169 84/93/169 113/96/169 104/133/169
f 90/114/170 115/115/170 106/127/170 89/126/170
f 1/54/171 120/122/171 122/60/171 32/47/171
f 50/70/172 119/71/172 116/125/172
f 89/128/173 105/131/173 127/130/173 1/129/173
f 34/45/174 43/64/174 114/62/174 101/135/174
f 29/56/175 103/57/175 102/134/175 43/59/175
f 35/46/176 34/45/176 101/135/176 110/52/176
f 47/119/177 125/121/177 126/120/177
f 114/62/178 43/64/178 111/63/178
f 128/94/179 113/96/179 84/93/179 79/95/179
f 118/55/180 103/57/180 29/56/180
